<svg width="1440" height="980" viewBox="0 0 1440 980" fill="none" xmlns="http://www.w3.org/2000/svg">
<mask id="mask0" mask-type="alpha" maskUnits="userSpaceOnUse" x="0" y="0" width="1440" height="980">
<path d="M0 980V0H1440V789.6C1218 814.8 1144 963.2 720 884.8C392.841 824.306 272 957.6 0 980Z" fill="#00B478"/>
</mask>
<g mask="url(#mask0)">
<path d="M0 980V0H1440V789.6C1218 814.8 1144 963.2 720 884.8C392.841 824.306 272 957.6 0 980Z" fill="url(#paint0_linear)"/>
<g opacity="0.028">
<path d="M1119.2 811.412V606.029L1158.08 568.048L1353.92 759.363L1209.92 900.037L1119.2 811.412Z" fill="#00B478"/>
<path d="M654.082 357.036L798.082 216.362L888.802 304.987V510.369L849.922 548.351L654.082 357.036Z" fill="#00B478"/>
<path d="M294.082 407.678L438.082 548.351L788.002 206.515L500.002 206.515L294.082 407.678ZM1220 909.881H1508L1713.92 708.718L1569.92 568.045L1220 909.881Z" fill="#00B478"/>
<path d="M903.202 817.037L1104.8 620.095V1064.62H903.202V817.037Z" fill="#00B478"/>
<path d="M903.202 51.7755L1104.8 51.7755V299.36L903.202 496.302V51.7755Z" fill="#00B478"/>
<path d="M284 417.527L284 698.873L489.92 900.036L633.92 759.362L284 417.527ZM1374.08 357.037L1518.08 216.364L1724 417.527V698.873L1374.08 357.037Z" fill="#00B478"/>
<path d="M500.001 909.881H788.001L1508 206.515L1220 206.515L500.001 909.881Z" fill="#00B478"/>
</g>
</g>
<defs>
<linearGradient id="paint0_linear" x1="720" y1="0" x2="720" y2="980" gradientUnits="userSpaceOnUse">
<stop stop-color="#F8F8F8" stop-opacity="0"/>
<stop offset="0.479167" stop-color="#F8F8F8" stop-opacity="0.84"/>
<stop offset="1" stop-color="#F8F8F8"/>
</linearGradient>
</defs>
</svg>
