<svg xmlns="http://www.w3.org/2000/svg" viewBox="0 0 4292 2669.24"><defs><style>.a{isolation:isolate;}.b{fill:#fff3d2;}.c{fill:#f9e0bb;}.d{fill:#2da66d;}.e{fill:#033a3f;}.f,.k{opacity:0.3;}.f,.k,.m,.o{mix-blend-mode:multiply;}.g,.k,.o{fill:#1a1a1a;}.h{fill:#027369;}.i{fill:#ebc4a1;}.j{fill:#fee2b3;}.l{fill:#2cbf7b;}.m{fill:#2645a8;}.m,.o{opacity:0.2;}.n{fill:#fff;}</style></defs><title>page-not-found</title><g class="a"><path class="b" d="M1108.48,1311.06c88.07-144.75,95.59-322.35,134.29-487.31s132.66-340.89,297.88-378.47C1727.9,402.69,1906.76,557.11,2098.8,558c138.7.65,263.12-78,388.79-136.67a1454.34,1454.34,0,0,1,676.23-134.59c111.84,4.93,232.06,27.4,308.46,109.22,44.61,47.79,69.23,110.82,109.44,162.37,112.51,144.25,321.76,170.4,503,145.77s359.15-88.06,541.83-78.2,380.69,125.75,398.15,307.86c12.14,126.69-65.13,243.89-148.38,340.15s-179,189-217.08,310.37c-85.94,273.84,153,552.7,131,838.87-17.27,224.6-201.12,412.32-414.09,485.72s-448.23,49.67-665.59-9.51-424-152.23-639.29-218.6S2625,2575.13,2405.72,2627c-211.52,50-399,181.75-613.65,216.12-154.89,24.81-317.51-5.69-454.3-82-159.1-88.74-232.19-222.08-321.82-372.33-61.28-102.75-153-177.34-220.57-274.2-70.87-101.53-75.42-235.84-38.83-352C816.09,1573.46,1009.11,1474.39,1108.48,1311.06Z" transform="translate(-734 -285.38)"/><path class="c" d="M3222.89,1350.12,3350.8,1315l-12.14-68.82-12.13-68.82-132.1,10.74a387.72,387.72,0,0,0-52.41-90.6l75.41-109.1-53.53-44.92-53.54-44.92-94.3,93.16a385.13,385.13,0,0,0-98.37-35.81l-12.36-132H2765.56l-12.36,132a385.13,385.13,0,0,0-98.37,35.81l-94.3-93.16L2507,943.49l-53.53,44.92,75.41,109.1a387.72,387.72,0,0,0-52.41,90.6l-132.1-10.74-12.13,68.82L2320.09,1315,2448,1350.12a386.74,386.74,0,0,0,18.08,103.09L2358,1529.89l34.94,60.52,34.94,60.52,120.55-55.32a389.87,389.87,0,0,0,80.14,67.29L2595,1791.18l65.67,23.9,65.67,23.91,56.77-119.84a391.77,391.77,0,0,0,104.65,0L2944.54,1839l65.67-23.91,65.67-23.9-33.54-128.28a390.13,390.13,0,0,0,80.14-67.29L3243,1650.93l34.95-60.52,34.94-60.52-108.1-76.68A386.74,386.74,0,0,0,3222.89,1350.12Zm-520.53-15.2A133.09,133.09,0,1,1,2835.45,1468,133.09,133.09,0,0,1,2702.36,1334.92Z" transform="translate(-734 -285.38)"/><path class="c" d="M3639.61,973l58.89-16.16-5.58-31.69-5.59-31.69-60.83,4.95a178.2,178.2,0,0,0-24.13-41.72l34.72-50.24-24.65-20.69-24.65-20.68L3544.37,808a177.52,177.52,0,0,0-45.3-16.49l-5.69-60.77H3429l-5.69,60.77A177.52,177.52,0,0,0,3378,808l-43.42-42.9L3310,785.78l-24.65,20.69L3320,856.71a178.2,178.2,0,0,0-24.13,41.72l-60.83-4.95-5.58,31.69-5.59,31.69L3282.79,973a178.47,178.47,0,0,0,8.33,47.47l-49.78,35.31,16.09,27.87,16.09,27.87,55.51-25.48a179.81,179.81,0,0,0,36.9,31l-15.44,59.07,30.24,11,30.24,11,26.14-55.18a180,180,0,0,0,48.19,0l26.14,55.18,30.23-11,30.24-11-15.44-59.07a179.54,179.54,0,0,0,36.9-31l55.51,25.48,16.09-27.87,16.09-27.87-49.78-35.31A178.07,178.07,0,0,0,3639.61,973Zm-239.69-7a61.28,61.28,0,1,1,61.28,61.27A61.28,61.28,0,0,1,3399.92,966Z" transform="translate(-734 -285.38)"/><path class="c" d="M3223.21,719.25,3257,710l-3.21-18.2-3.21-18.19-34.92,2.84a102.22,102.22,0,0,0-13.85-23.95l19.93-28.84-14.15-11.87-14.15-11.88-24.93,24.63a101.4,101.4,0,0,0-26-9.46l-3.27-34.89h-36.94l-3.27,34.89a101.4,101.4,0,0,0-26,9.46l-24.93-24.63L3034,611.76l-14.15,11.87,19.93,28.84a102.22,102.22,0,0,0-13.85,23.95L2991,673.58l-3.21,18.19-3.21,18.2,33.81,9.28a102.61,102.61,0,0,0,4.78,27.25l-28.57,20.27,9.24,16,9.23,16,31.87-14.62a103,103,0,0,0,21.18,17.79l-8.87,33.91,17.36,6.31,17.36,6.32,15-31.67a104.41,104.41,0,0,0,27.66,0l15,31.67,17.36-6.32,17.36-6.31-8.87-33.91a103,103,0,0,0,21.18-17.79l31.87,14.62,9.23-16,9.24-16-28.57-20.27A102.61,102.61,0,0,0,3223.21,719.25Zm-137.6-4a35.18,35.18,0,1,1,35.18,35.18A35.18,35.18,0,0,1,3085.61,715.23Z" transform="translate(-734 -285.38)"/><ellipse class="c" cx="2002.69" cy="1873.68" rx="1501.58" ry="82.84"/><path class="d" d="M2435.45,1999.92h-98.2l-24.68,126.7h-241.8l24.69-126.7H1712.17L1743,1841.53l402.05-454H2400.6l-360.42,419.19h100.31l22-113h234.41l-22,113h98.19Z" transform="translate(-734 -285.38)"/><path class="d" d="M2604.19,2080.69q-66.55-45.93-92.34-133t-2.35-207.48q23.46-120.37,83.19-207.48t144.17-133q84.43-45.93,182.64-45.93t164.75,45.93q66.52,45.93,92.34,133t2.35,207.48q-23.46,120.38-83.19,207.48t-144.17,133q-84.47,45.93-182.65,45.93T2604.19,2080.69Zm324.5-340.52q36.41-186.89-48.06-186.89t-120.88,186.89q-36.4,186.88,48.06,186.89T2928.69,1740.17Z" transform="translate(-734 -285.38)"/><path class="d" d="M3859.11,1999.92h-98.2l-24.68,126.7h-241.8l24.69-126.7H3135.83l30.85-158.39,402.05-454h255.53l-360.42,419.19h100.31l22-113h234.41l-22,113h98.19Z" transform="translate(-734 -285.38)"/><path class="e" d="M2298.57,2049.13H2038.88l24.68-126.71H1680.28l33.14-170.12,2-2.3,405.47-457.89h276.92l-263.28,306.21H2386.4l-22,113h98.19l-41.13,211.12h-98.19Zm-238.31-17.9h223.9l24.69-126.71H2407l34.16-175.33H2343l22-113H2148.5l-22,113H2000.54L2361,1310H2126.82l-396.59,447.87-28.57,146.64H2085Zm-22.84-319.93h74.66L2134,1599Z" transform="translate(-734 -285.38)"/><path class="e" d="M2746,2049.13c-66.84,0-123.74-15.9-169.14-47.24h0c-45.46-31.37-77.43-77.38-95-136.74-17.49-59-18.32-130.17-2.5-211.42s44.39-152.39,84.87-211.43c40.71-59.36,90.6-105.37,148.28-136.74s120.71-47.24,187.55-47.24,123.72,15.9,169.14,47.24,77.43,77.39,95,136.74c17.48,59,18.32,130.18,2.49,211.43s-44.38,152.38-84.87,211.42c-40.69,59.35-90.58,105.36-148.27,136.74S2812.81,2049.13,2746,2049.13Zm150.57-772.91c-63.51,0-123.3,15-177.73,44.63s-101.51,73.09-140.08,129.34c-38.79,56.56-66.21,125-81.5,203.54s-14.55,147,2.2,203.53c16.65,56.26,46.82,99.77,89.68,129.34h0c42.89,29.62,96.84,44.63,160.35,44.63s123.28-15,177.73-44.63,101.51-73.1,140.08-129.34c38.78-56.56,66.2-125,81.5-203.53s14.55-147-2.2-203.54c-16.65-56.24-46.83-99.76-89.68-129.34S2960.05,1276.22,2896.56,1276.22Zm-111.69,573.34c-31.87,0-52.52-17.49-61.39-52-8.27-32.17-6.21-80.57,6.12-143.85s29.13-111.69,49.93-143.86c22.31-34.49,49.78-52,81.64-52s52.51,17.5,61.38,52c8.27,32.17,6.22,80.57-6.11,143.86s-29.13,111.68-49.94,143.85C2844.19,1832.07,2816.72,1849.56,2784.87,1849.56Zm72.81-373.78c-50.11,0-87.18,59.87-110.18,178s-9.26,177.94,40.85,177.94,87.19-59.87,110.19-177.94S2907.8,1475.78,2857.68,1475.78Z" transform="translate(-734 -285.38)"/><path class="e" d="M3722.23,2049.13H3462.54l24.68-126.71H3103.94l33.14-170.12,2-2.3,405.47-457.89H3821.5l-263.28,306.21h251.84l-22,113h98.19l-41.13,211.12h-98.19Zm-238.31-17.9h223.9l24.69-126.71h98.19l34.16-175.33h-98.2l22-113H3572.16l-22,113h-126L3784.62,1310H3550.48l-396.59,447.87-28.57,146.64h383.29Zm-22.84-319.93h74.66L3557.62,1599Z" transform="translate(-734 -285.38)"/><polygon class="e" points="879.44 1263.45 1011.62 1263.45 1007.78 1249.89 875.61 1249.89 879.44 1263.45"/><polygon class="e" points="903.41 1348.18 1035.58 1348.18 1031.75 1334.62 899.57 1334.62 903.41 1348.18"/><polygon class="e" points="927.38 1432.9 1059.55 1432.9 1055.71 1419.35 923.54 1419.35 927.38 1432.9"/><polygon class="e" points="951.34 1517.63 1083.52 1517.63 1079.68 1504.07 947.51 1504.07 951.34 1517.63"/><polygon class="e" points="975.31 1602.36 1107.48 1602.36 1103.65 1588.8 971.47 1588.8 975.31 1602.36"/><polygon class="e" points="999.28 1687.08 1131.45 1687.08 1127.61 1673.53 995.44 1673.53 999.28 1687.08"/><polygon class="e" points="1023.24 1771.81 1155.42 1771.81 1151.58 1758.25 1019.41 1758.25 1023.24 1771.81"/><polygon class="e" points="1168.8 1867.55 1196.19 1867.55 1011.49 1214.59 984.1 1214.59 1168.8 1867.55"/><polygon class="e" points="1036.63 1867.55 1064.02 1867.55 879.32 1214.59 851.92 1214.59 1036.63 1867.55"/><polygon class="e" points="987.94 1249.88 984.1 1263.44 851.92 1263.44 855.76 1249.88 987.94 1249.88"/><polygon class="e" points="963.96 1334.62 960.13 1348.17 827.96 1348.17 831.8 1334.62 963.96 1334.62"/><polygon class="e" points="940 1419.35 936.17 1432.91 803.98 1432.91 807.82 1419.35 940 1419.35"/><polygon class="e" points="916.02 1504.08 912.19 1517.62 780.03 1517.62 783.86 1504.08 916.02 1504.08"/><polygon class="e" points="892.06 1588.8 888.23 1602.35 756.05 1602.35 759.9 1588.8 892.06 1588.8"/><polygon class="e" points="868.11 1673.53 864.27 1687.08 732.09 1687.08 735.92 1673.53 868.11 1673.53"/><polygon class="e" points="844.13 1758.26 840.29 1771.82 708.13 1771.82 711.96 1758.26 844.13 1758.26"/><g class="f"><polygon class="g" points="708.13 1771.82 734.44 1771.82 738.27 1758.26 711.96 1758.26 708.13 1771.82"/><polygon class="g" points="732.09 1687.08 758.42 1687.08 762.25 1673.53 735.92 1673.53 732.09 1687.08"/><polygon class="g" points="756.05 1602.35 782.38 1602.35 786.21 1588.8 759.9 1588.8 756.05 1602.35"/><polygon class="g" points="780.03 1517.62 806.36 1517.62 810.17 1504.08 783.86 1504.08 780.03 1517.62"/><polygon class="g" points="803.98 1432.91 830.32 1432.91 834.15 1419.35 807.82 1419.35 803.98 1432.91"/><polygon class="g" points="827.96 1348.17 854.27 1348.17 858.11 1334.62 831.8 1334.62 827.96 1348.17"/><polygon class="g" points="855.76 1249.88 851.92 1263.44 878.25 1263.44 882.09 1249.88 855.76 1249.88"/></g><g class="f"><polygon class="g" points="810.17 1771.82 836.48 1771.82 840.31 1758.26 814 1758.26 810.17 1771.82"/><polygon class="g" points="834.13 1687.08 860.46 1687.08 864.29 1673.53 837.96 1673.53 834.13 1687.08"/><polygon class="g" points="858.09 1602.35 884.42 1602.35 888.25 1588.8 861.94 1588.8 858.09 1602.35"/><polygon class="g" points="882.07 1517.62 908.4 1517.62 912.21 1504.08 885.9 1504.08 882.07 1517.62"/><polygon class="g" points="906.02 1432.91 932.35 1432.91 936.19 1419.35 909.86 1419.35 906.02 1432.91"/><polygon class="g" points="930 1348.17 956.31 1348.17 960.15 1334.62 933.84 1334.62 930 1348.17"/><polygon class="g" points="957.79 1249.88 953.96 1263.44 980.29 1263.44 984.13 1249.88 957.79 1249.88"/></g><polygon class="h" points="694.74 1867.55 667.34 1867.55 852.05 1214.59 879.44 1214.59 694.74 1867.55"/><polygon class="h" points="826.91 1867.55 799.52 1867.55 984.22 1214.59 1011.62 1214.59 826.91 1867.55"/><path class="e" d="M1753.18,1472.86H1578.36a16.38,16.38,0,0,0,0,32.76h174.82a16.38,16.38,0,0,0,0-32.76Z" transform="translate(-734 -285.38)"/><path d="M1681.45,1666.2s-29.63,17.15-80.2-5.9c0,0,22-15.72,49.53-13.62S1681.45,1666.2,1681.45,1666.2Z" transform="translate(-734 -285.38)"/><path d="M1582.38,1670.13s-36.16,15.33-82.55-18.87c0,0,24.37-24.37,47.56-24.37S1582.38,1670.13,1582.38,1670.13Z" transform="translate(-734 -285.38)"/><path class="i" d="M1555.91,1684.42s8.65-27.13,10-30.93-28.57-12.19-28.57-12.19,5.51,27,3.28,38.79-.66,14.81-.66,14.81Z" transform="translate(-734 -285.38)"/><path class="g" d="M1535.6,1704.46a7.69,7.69,0,0,0,3.74,2.49c1.69.4,50.25-1.27,52.08-3,.2-.18,1.2.09,1.41-.14,1.81-1.89,4.08-5.16,4-6.57-.12-1.57-36.55-12.32-39-15.59,0,0-8.26-7.08-17.17-1.58,0,0-2.06,10.77-5.81,18.12-.29.58.3,2.51,0,3C1533.83,1702.77,1534.36,1703.19,1535.6,1704.46Z" transform="translate(-734 -285.38)"/><path class="j" d="M1534.39,1704.58c1.63,1.69,3.77,3.72,4.75,4,1.7.4,51.23-2.36,53.07-4.07.19-.18.41-.4.62-.63-12.76-.9-43.31-3.25-58.06-5.62-.29.58-.6,1.13-.92,1.67A3.85,3.85,0,0,0,1534.39,1704.58Z" transform="translate(-734 -285.38)"/><path class="i" d="M1657.9,1681.41s11.63-26,13.36-29.62-27-15.3-27-15.3,2.45,27.44-1.08,38.91-2.31,14.64-2.31,14.64Z" transform="translate(-734 -285.38)"/><path class="g" d="M1635.84,1698.89a11.81,11.81,0,0,0,4,3.61c1.64.58,48.37,3.59,50.38,2.09.22-.16,2,.45,2.2.24,2-1.68,4.64-4.67,4.67-6.09s-34.94-16.33-37.06-19.86c0,0-7.41-8-16.88-3.48,0,0-3.25,10.46-7.8,17.35-.35.55-.72,1.06-1.09,1.56C1633.17,1695.71,1634.75,1697.5,1635.84,1698.89Z" transform="translate(-734 -285.38)"/><path class="j" d="M1634.26,1699.05c1.44,1.85,3.34,4.11,4.28,4.45,1.65.58,51.18,3.38,53.19,1.89.22-.16.45-.35.69-.56-12.58-2.32-42.67-8.07-57.07-12.08-.35.55-.72,1.06-1.09,1.56A3.84,3.84,0,0,0,1634.26,1699.05Z" transform="translate(-734 -285.38)"/><path class="e" d="M1789.68,1287.38s16.52,31.45-4.19,58.44c0,0-13.37-20.18-8.39-35.64S1783.66,1290.26,1789.68,1287.38Z" transform="translate(-734 -285.38)"/><path class="g" d="M1499.83,1651.26c56.61-5.9,82.55,18.87,82.55,18.87,6.52-10.75,14.07-42.79,20.4-74.91,5.67-28.71,10.38-57.47,12.53-71.07.83-5.14,1.27-8.12,1.27-8.12l9.86,13.15,11.37,15.16c-.79,31.45-36.56,116-36.56,116,58.18-14.54,80.2,5.9,80.2,5.9,6.46-6.65,16.4-29.61,25.2-53.06,10.45-27.78,19.33-56.23,19.08-59-1.43-16.71-66.82-110.07-73.9-128.41a200.75,200.75,0,0,1-9.7-33c-.57-.74-1.15-1.44-1.72-2.13-37.63-45-90-9.94-90-9.94s-2.09,95.92-6.28,133.14S1499.83,1651.26,1499.83,1651.26Z" transform="translate(-734 -285.38)"/><path class="i" d="M1598.69,1222.39s1,9.23-4.64,15.71-2.33,11.61-1.46,12.29,26.54,1.27,26.54,1.27l1.3-3.07,1.75-4.1-3.25-3.63a7.79,7.79,0,0,1-1.25-3.23,32.83,32.83,0,0,1-.47-8.79v0c.16.12,2.74,2.38,6.58,5.75,3.45,3,9.15-10,8.89-16.16a82.81,82.81,0,0,0-.65-8.53,7.28,7.28,0,0,0,5.26-.69,1.75,1.75,0,0,0,.87-2.22c-1.13-2.87-4.85-7.88-3.17-14.6a17.18,17.18,0,0,1,.84-2.47c2.33-5.4-18.75-11.33-33.14-9.19-7.54,1.13-13.22,4.46-12.75,11.25C1591.33,1211.76,1598.69,1222.39,1598.69,1222.39Z" transform="translate(-734 -285.38)"/><path class="k" d="M1499.83,1651.26c56.61-5.9,82.55,18.87,82.55,18.87,6.52-10.75,14.07-42.79,20.4-74.91a13.48,13.48,0,0,0-3.72,3.22c-3.81,5-5,11.47-8.21,16.82a24.44,24.44,0,0,1-42.22-.78c-7.92-14.18-.32-31.54,5.73-46.59a231.55,231.55,0,0,0,16.6-85.23c0-16-1.56-32.27,1.62-48s12.36-31.41,27.35-37.11c10.66-4.07,22.31-2.51,33.31-4.76a44.29,44.29,0,0,0,7.17-2.17c-37.63-45-90-9.94-90-9.94s-2.09,95.92-6.28,133.14S1499.83,1651.26,1499.83,1651.26Z" transform="translate(-734 -285.38)"/><path class="e" d="M1597.72,1415.39s-16.51,27.74-56.41,27.34c0,0,3.92-19.29,29.28-27.34S1597.72,1415.39,1597.72,1415.39Z" transform="translate(-734 -285.38)"/><path class="i" d="M1774,1302.33c.11,3.28.83,6.63,1.26,9.89a10.19,10.19,0,0,0,1.36,4.58c1.26,1.84,3.6,2.63,5.82,2.79s4.46-.25,6.68-.23c4.83,0,9.45,2,13.61,4.4.75.44,1.5.9,2.23,1.38,3.32,2.14,6.48,4.49,9.86,6.51a57.6,57.6,0,0,0,17.72,6.91,1.6,1.6,0,0,0,1.73-2.33,1.56,1.56,0,0,0-.43-.47,44.2,44.2,0,0,0-9.53-5.35l.77.26c5.44,1.9,10.9,3.79,16.34,5.67,1.16.41,2.72.7,3.44-.3a2,2,0,0,0-.29-2.34,5.61,5.61,0,0,0-2.1-1.36l-14.09-6.49,17.09,6.1c1.51.54,3.61.86,4.33-.56a2.24,2.24,0,0,0-.55-2.51,6.63,6.63,0,0,0-2.34-1.37l-16.45-6.84,14.49,4.92c1.54.54,3.56,1,4.59-.33a2.78,2.78,0,0,0-.51-3.55,8.13,8.13,0,0,0-3.48-1.71l-24-7.31a55.64,55.64,0,0,0,9.2,1.16,5.7,5.7,0,0,0,2.4-.26,2,2,0,0,0,1.33-1.86c-.06-1.12-1.27-1.76-2.29-2.19-5.81-2.37-12.07-4.8-18.18-3.44-2.66.58-5.12,1.85-7.77,2.51-5.42,1.36-11.63-1.24-16.6-3.81-.73-.38-1.44-.7-2.09-1a23.42,23.42,0,0,1-5.14-2.83c-1.61-1.22-3.5-2.43-5.63-2.25S1774,1300.37,1774,1302.33Z" transform="translate(-734 -285.38)"/><path class="k" d="M1774,1302.33c.11,3.28.83,6.63,1.26,9.89a10.19,10.19,0,0,0,1.36,4.58c1.26,1.84,3.6,2.63,5.82,2.79s4.46-.25,6.68-.23c4.83,0,9.45,2,13.61,4.4.75.44,1.5.9,2.23,1.38-2-3.4-5.7-5.54-9.08-7.69-3.69-2.36-7.49-5.37-8.26-9.68a16.9,16.9,0,0,1-.07-4,23.42,23.42,0,0,1-5.14-2.83c-1.61-1.22-3.5-2.43-5.63-2.25S1774,1300.37,1774,1302.33Z" transform="translate(-734 -285.38)"/><path class="i" d="M1592.08,1464.7s6.35,1.42,9.76-2.44a1.73,1.73,0,0,0-1.77-1.84c-1.9-.13-7.14,2-11,0v3.08Z" transform="translate(-734 -285.38)"/><path class="i" d="M1590.72,1460.09s6.8,9.46,10.23,10.44,5.61,1.48,6.29,2.66a8.73,8.73,0,0,1,.74,2.81,1.11,1.11,0,0,1-1.25,1.26,23.51,23.51,0,0,1-7.58-2.11s-7.5-4.28-8.43-6.4S1590.72,1460.09,1590.72,1460.09Z" transform="translate(-734 -285.38)"/><path class="i" d="M1596.73,1468.68s6.35,1.43,9.76-2.44a1.72,1.72,0,0,0-1.77-1.83c-1.9-.13-7.14,2-11,0v3.08Z" transform="translate(-734 -285.38)"/><path class="i" d="M1561,1417.76s11.31,18,14.8,26.08a15.8,15.8,0,0,1,.93,2.63c1.18,5.52,18.18,39.09,19.55,39.49s1.49-3.84,1.49-5.7c0-.64-1.23-3.75-2.71-7.69-.93-2.43-1.94-5.18-2.86-7.86-.41-1.24-.79-2.46-1.15-3.62-.09-.32-.18-.65-.27-.95v0c-1.07-3.83-1.54-7-.58-8,2.95-3.06,7.76,4.51,8.15,4.91s4.52,1.86,5.41,1.37-7.37-13.16-8.36-13.76-8.06-5.3-10-7.27c-1.16-1.15-3.19-11.44-4.68-19.74-1-5.85-1.81-10.72-1.81-10.72Z" transform="translate(-734 -285.38)"/><path class="k" d="M1561,1417.76s11.31,18,14.8,26.08a9.27,9.27,0,0,0,.27-2.08c.11-3-.79-6-1.4-9s-.91-6.21.35-9c1.14-2.55,3.45-4.39,5.68-6.1-1-5.85-1.81-10.72-1.81-10.72Z" transform="translate(-734 -285.38)"/><path class="l" d="M1524.2,1362.73c2,10.21,19.86,42.25,17.11,80,0,0,23.58-29.69,56.41-27.34l-8.69-21.67-4.81-12s28.83-4.46,57.91,11c0,0-3.44-5.63-3-16.88a56.26,56.26,0,0,1,.85-7.51c1.22-6.89,2.88-18.25,4.36-29.5,2-15.24,3.67-30.3,3.51-33.91v-.06c0-1.82,4.18-.2,10,2.93,13.48,7.31,35.85,22.81,35.85,22.81s92,16,91.72,15.2-7.34-45.34,4.19-58.44c0,0-10.65-1.44-25.41-2.94-16.71-1.7-38.67-3.49-56.36-3.35,0,0-55.82-26.74-68.14-30.92s-16.77-9.31-20.84-9.31c0,0-.91,5.38-4,4.84s-18.62-7.46-20.83-7.6a1.46,1.46,0,0,0-1.16.28c-.72.56-1,2.09-5.52,4.71-6.16,3.53-11.93,3.15-18.35,8.65s-24.64,34.6-44.82,105.35C1524.2,1357.09,1522.24,1352.5,1524.2,1362.73Z" transform="translate(-734 -285.38)"/><path class="k" d="M1574.52,1355.25c.26,3.93,9.7,26.48,9.7,26.48s28.83-4.46,57.91,11c0,0-3.44-5.63-3-16.88-10.64-4.31-24.25-6.56-36.62-8.21-17-2.26-13.82.18-15.19-15-1.36-14.91,8-66.17,8.36-68.08C1595,1286.79,1574.25,1351.38,1574.52,1355.25Z" transform="translate(-734 -285.38)"/><path class="k" d="M1617.68,1237.63a32.83,32.83,0,0,1-.47-8.79l-5.87-4.88S1613.05,1232.55,1617.68,1237.63Z" transform="translate(-734 -285.38)"/><path class="k" d="M1590.26,1195.5c2.24-.71,4.84-.17,7.15.72-1.33-1.84-2.35-3.21-2.35-3.21s5.94-10,7.64-12.25c14.39-2.14,35.47,3.79,33.14,9.19a17.18,17.18,0,0,0-.84,2.47c-2.34,1.18-5.67,1.87-10.36,1.37-14.85-1.58-18.87-4.13-19.27,2.06-.37,5.77,2.52,12.22,3.63,14.43l.21.41a23.81,23.81,0,0,1-5.08-4.21c-2.71-2-5.69-3.92-6.75-3.16-2.09,1.5,1.38,7.86,2.76,8.58s-.59,10.48-.59,10.48-5.7-7.14-5.84-7.47S1584.78,1197.25,1590.26,1195.5Z" transform="translate(-734 -285.38)"/><path class="g" d="M1581.07,1190.54c-.26,19.92,18.48,31.85,18.48,31.85l-1.38-7.55-.19-1.1c-4.47-1.7-6.82-11.15-2.63-13.11,3.74-1.75,7,3.06,7.67,4.13-.73-1.4-4.85-9.75.06-15.27,5.38-6,12.19,2,31.22,1.85s7.44-30.81,7.44-30.81c-4.32,6.82-13.89,3.28-13.89,3.28,4.32-3.93,3.93-12.58,3.93-12.58s-.39.67-1.15,1.71c-2.71,3.76-10.2,12.35-22.17,12.44C1593.13,1165.52,1581.33,1170.62,1581.07,1190.54Z" transform="translate(-734 -285.38)"/><path class="k" d="M1524.2,1362.73c2,10.21,19.86,42.25,17.11,80,0,0,23.58-29.69,56.41-27.34l-8.69-21.67a2.48,2.48,0,0,0-1.54,1.23c-5.5,10.23-35,9.25-36,1.18s-10.81-27.32-12.77-39.3,11-38.93,14.54-54.06,14.16-41.66,27.32-50.31,12.28-14.08,12.28-14.08c-.72.56-1,2.09-5.52,4.71-6.16,3.53-11.93,3.15-18.35,8.65s-24.64,34.6-44.82,105.35C1524.2,1357.09,1522.24,1352.5,1524.2,1362.73Z" transform="translate(-734 -285.38)"/><path class="k" d="M1646.64,1269.46c9.38,11,28.19,32.15,41.09,39.93,17.82,10.75,23.25,10.75,38.35,11.53,14.31.75,45.67-5.09,38.19-36.48,14.76,1.5,25.41,2.94,25.41,2.94-11.53,13.1-4.46,57.66-4.19,58.44s-91.72-15.2-91.72-15.2-22.37-15.5-35.85-22.81c-5.84-3.13-10-4.75-10-2.93,0-1.47-.73-28.3-7-42.35a0,0,0,0,1,0,0C1641,1262.64,1643.53,1264.46,1646.64,1269.46Z" transform="translate(-734 -285.38)"/><path class="k" d="M1592.89,1238.38s26.44,18.73,28.54,13.28-2.5-10.8-2.5-10.8-.91,5.38-4,4.84-18.62-7.46-20.83-7.6A1.46,1.46,0,0,0,1592.89,1238.38Z" transform="translate(-734 -285.38)"/><path class="k" d="M1601.25,1660.3c58.18-14.54,80.2,5.9,80.2,5.9,6.46-6.65,16.4-29.61,25.2-53.06a3.35,3.35,0,0,0-.55-.31c-6.43-3.16-14.09.57-19.82,4.86s-11.65,9.56-18.82,9.6c-4.76,0-9.16-2.24-13.7-3.67s-10-1.8-13.5,1.44c6.87-12.18,13.77-24.44,18.5-37.62s7.17-27.43,4.88-41.23c-3.2-19.13-9.5-36.4-20.2-52.58s-20-30.19-25.68-52.63c-.93,23.28,3.47,46.44-1.15,69.45a70.62,70.62,0,0,0-1.3,13.7c.83-5.14,1.27-8.12,1.27-8.12l9.86,13.15,11.37,15.16C1637,1575.79,1601.25,1660.3,1601.25,1660.3Z" transform="translate(-734 -285.38)"/><path class="k" d="M1581.07,1190.54c-.26,19.92,18.48,31.85,18.48,31.85l-1.38-7.55c-.71-.4-1.42-.83-2.09-1.27-7.08-4.77-10.32-14.2-8.61-22.57s7.88-15.47,15.52-19.27c6-3,12.78-4.13,18.39-7.74a24,24,0,0,0,9.25-11c-2.71,3.76-10.2,12.35-22.17,12.44C1593.13,1165.52,1581.33,1170.62,1581.07,1190.54Z" transform="translate(-734 -285.38)"/><path class="e" d="M2674.39,1174.81a41.89,41.89,0,0,1,0-74.2,52.32,52.32,0,0,1,46.7,0,41.89,41.89,0,0,1,0,74.2,52.32,52.32,0,0,1-46.7,0Zm34.58-16.62a21,21,0,0,0,8-8.25,27,27,0,0,0,0-24.46,21,21,0,0,0-8-8.25,23.07,23.07,0,0,0-22.47,0,21.07,21.07,0,0,0-8,8.25,27.07,27.07,0,0,0,0,24.46,21.07,21.07,0,0,0,8,8.25,23,23,0,0,0,22.47,0Z" transform="translate(-734 -285.38)"/><path class="e" d="M2773.4,1174.81a41.89,41.89,0,0,1,0-74.2,52.32,52.32,0,0,1,46.7,0,41.89,41.89,0,0,1,0,74.2,52.32,52.32,0,0,1-46.7,0Zm34.58-16.62a21,21,0,0,0,8-8.25,27,27,0,0,0,0-24.46,21,21,0,0,0-8-8.25,23.07,23.07,0,0,0-22.47,0,21.07,21.07,0,0,0-8,8.25,27.07,27.07,0,0,0,0,24.46,21.07,21.07,0,0,0,8,8.25,23,23,0,0,0,22.47,0Z" transform="translate(-734 -285.38)"/><path class="e" d="M2911.21,1100.44a28.89,28.89,0,0,1,0,53.13,46.69,46.69,0,0,1-19.31,3.69h-14.28v21.41h-23.17v-81.92h37.45A46.69,46.69,0,0,1,2911.21,1100.44Zm-9.95,35.46q3.63-3.11,3.63-8.84t-3.63-8.89q-3.63-3.17-10.77-3.16h-12.87v24h12.87Q2897.63,1139,2901.26,1135.9Z" transform="translate(-734 -285.38)"/><path class="e" d="M2950.18,1177.86a47.53,47.53,0,0,1-15.21-6.56l7.6-17.09a49.47,49.47,0,0,0,12.76,5.86,48.67,48.67,0,0,0,14.28,2.22q13.35,0,13.34-6.67,0-3.51-3.8-5.21a70.26,70.26,0,0,0-12.23-3.57,115.54,115.54,0,0,1-15.45-4.27,26,26,0,0,1-10.65-7.31q-4.46-5-4.45-13.58a23.53,23.53,0,0,1,4.1-13.52q4.09-6,12.23-9.54t20-3.51a70.93,70.93,0,0,1,15.92,1.81,49.07,49.07,0,0,1,13.81,5.33l-7.14,17.2q-11.7-6.32-22.7-6.32-6.91,0-10.07,2a6.14,6.14,0,0,0-3.16,5.33q0,3.27,3.75,4.91a66.68,66.68,0,0,0,12.05,3.4,112.53,112.53,0,0,1,15.51,4.27,26.82,26.82,0,0,1,10.65,7.26q4.5,5,4.5,13.51a23.06,23.06,0,0,1-4.09,13.35q-4.09,6-12.29,9.53t-19.9,3.57A76.11,76.11,0,0,1,2950.18,1177.86Z" transform="translate(-734 -285.38)"/><path class="e" d="M3025.9,1177.86a47.53,47.53,0,0,1-15.21-6.56l7.6-17.09a49.47,49.47,0,0,0,12.76,5.86,48.67,48.67,0,0,0,14.28,2.22q13.35,0,13.34-6.67c0-2.34-1.26-4.08-3.8-5.21a70.26,70.26,0,0,0-12.23-3.57,115.54,115.54,0,0,1-15.45-4.27,26,26,0,0,1-10.65-7.31q-4.45-5-4.45-13.58a23.53,23.53,0,0,1,4.1-13.52q4.09-6,12.23-9.54t19.95-3.51a71,71,0,0,1,15.92,1.81,49.07,49.07,0,0,1,13.81,5.33l-7.14,17.2q-11.7-6.32-22.7-6.32-6.91,0-10.07,2a6.14,6.14,0,0,0-3.16,5.33q0,3.27,3.75,4.91a66.68,66.68,0,0,0,12,3.4,112.53,112.53,0,0,1,15.51,4.27,26.75,26.75,0,0,1,10.65,7.26q4.5,5,4.5,13.51a23.06,23.06,0,0,1-4.09,13.35q-4.11,6-12.29,9.53t-19.89,3.57A76.13,76.13,0,0,1,3025.9,1177.86Z" transform="translate(-734 -285.38)"/><path class="e" d="M3093.31,1176a13.65,13.65,0,0,1-.06-19,14.43,14.43,0,0,1,19.14,0,13.8,13.8,0,0,1-.06,19,13.93,13.93,0,0,1-19,0Z" transform="translate(-734 -285.38)"/><path class="e" d="M3126.43,1176a13.65,13.65,0,0,1-.06-19,14.43,14.43,0,0,1,19.14,0,13.8,13.8,0,0,1-.06,19,13.93,13.93,0,0,1-19,0Z" transform="translate(-734 -285.38)"/><path class="e" d="M3159.55,1176a13.65,13.65,0,0,1-.06-19,14.43,14.43,0,0,1,19.14,0,13.8,13.8,0,0,1-.06,19,13.93,13.93,0,0,1-19,0Z" transform="translate(-734 -285.38)"/><path class="e" d="M2527.56,2291.63a20.91,20.91,0,0,1,0,38.46,33.85,33.85,0,0,1-14,2.67h-10.34v15.51h-16.78V2289h27.12A33.85,33.85,0,0,1,2527.56,2291.63Zm-7.21,25.67a8,8,0,0,0,2.63-6.4,8.11,8.11,0,0,0-2.63-6.44q-2.62-2.28-7.79-2.28h-9.32v17.36h9.32C2516,2319.54,2518.6,2318.8,2520.35,2317.3Z" transform="translate(-734 -285.38)"/><path class="e" d="M2583.9,2306.79q6,5.22,6,16v25.51h-15v-5.94q-3.48,6.71-13.56,6.7a21.05,21.05,0,0,1-9.23-1.87,13.61,13.61,0,0,1-5.89-5,13.33,13.33,0,0,1-2-7.24,11.77,11.77,0,0,1,5-10.13q5-3.6,15.42-3.6h9.15q-.42-7.28-9.74-7.28a22.23,22.23,0,0,0-6.69,1.06,17.73,17.73,0,0,0-5.76,2.92l-5.43-10.93a30.23,30.23,0,0,1,9.28-3.94,44.18,44.18,0,0,1,11-1.4Q2577.89,2301.58,2583.9,2306.79Zm-13.14,30.72a7.51,7.51,0,0,0,3-4v-4h-6.94c-4.69,0-7,1.56-7,4.66a4.11,4.11,0,0,0,1.6,3.39,7,7,0,0,0,4.41,1.27A8.93,8.93,0,0,0,2570.76,2337.51Z" transform="translate(-734 -285.38)"/><path class="e" d="M2650.15,2302.34v37.54q0,12.79-7,19.19t-20,6.39a50.72,50.72,0,0,1-12.71-1.52,29.92,29.92,0,0,1-10.08-4.49l5.84-11.27a20.41,20.41,0,0,0,7.08,3.6,28.45,28.45,0,0,0,8.43,1.31q6.34,0,9.32-2.79t3-8.3v-1.53q-4.65,5.43-13.64,5.42a23.58,23.58,0,0,1-11.27-2.75,20.94,20.94,0,0,1-8.21-7.8,23.6,23.6,0,0,1,0-23.21,20.91,20.91,0,0,1,8.21-7.79,23.58,23.58,0,0,1,11.27-2.76q9.83,0,14.41,6.36v-5.6Zm-18.77,28.13a9.51,9.51,0,0,0,0-13.51,10.23,10.23,0,0,0-7.21-2.58A10.35,10.35,0,0,0,2617,2317a9.41,9.41,0,0,0,0,13.51,10.29,10.29,0,0,0,7.2,2.63A10.12,10.12,0,0,0,2631.38,2330.47Z" transform="translate(-734 -285.38)"/><path class="e" d="M2707.17,2329.37h-33.38a9.32,9.32,0,0,0,3.94,5.47,13.16,13.16,0,0,0,7.33,1.9,15.86,15.86,0,0,0,5.71-.93,17,17,0,0,0,4.88-3l8.47,8.81q-6.69,7.45-19.57,7.46a31.26,31.26,0,0,1-14.15-3.05,23.19,23.19,0,0,1-.51-41.35,28.91,28.91,0,0,1,25.42-.21,21.51,21.51,0,0,1,8.85,8.22,24.18,24.18,0,0,1,3.26,12.75C2707.42,2325.5,2707.34,2326.83,2707.17,2329.37Zm-30.46-14.23a9.53,9.53,0,0,0-3.18,5.76h18.81a9.53,9.53,0,0,0-3.18-5.76,10.2,10.2,0,0,0-12.45,0Z" transform="translate(-734 -285.38)"/><path class="e" d="M2796.72,2289v59.31h-13.81l-26.18-31.61v31.61h-16.44V2289h13.81l26.18,31.6V2289Z" transform="translate(-734 -285.38)"/><path class="e" d="M2817.56,2346a23.09,23.09,0,0,1-9.27-8.47,23.15,23.15,0,0,1,9.23-32.92,31.18,31.18,0,0,1,26.73,0,22.63,22.63,0,0,1,9.24,8.39,23.24,23.24,0,0,1-9.24,33,30.72,30.72,0,0,1-26.69,0Zm20.25-12.67c1.81-1.95,2.71-4.64,2.71-8.09s-.9-6-2.71-8a9.81,9.81,0,0,0-13.89,0q-2.72,2.88-2.71,8c0,3.45.9,6.14,2.71,8.09a9.72,9.72,0,0,0,13.89,0Z" transform="translate(-734 -285.38)"/><path class="e" d="M2895.93,2346.4a16.09,16.09,0,0,1-4.95,1.95,27.67,27.67,0,0,1-6.23.68q-9,0-13.81-4.41t-4.83-13.13v-15.42h-6.69v-12h6.69v-11.95h16.1V2304h10.5v12h-10.5v15.25a5.41,5.41,0,0,0,1.31,3.86,4.59,4.59,0,0,0,3.52,1.39,8.52,8.52,0,0,0,4.91-1.44Z" transform="translate(-734 -285.38)"/><path class="e" d="M2944.31,2301.92v13h26.18v13h-26.18v20.34h-16.78V2289H2974v13Z" transform="translate(-734 -285.38)"/><path class="e" d="M2989.89,2346a22.7,22.7,0,0,1-12.63-20.76,22.63,22.63,0,0,1,12.59-20.63,29,29,0,0,1,13.34-3,29.28,29.28,0,0,1,13.39,3,22.54,22.54,0,0,1,9.23,8.39,23.25,23.25,0,0,1-9.23,33,30.72,30.72,0,0,1-26.69,0Zm20.25-12.67c1.81-1.95,2.71-4.64,2.71-8.09s-.9-6-2.71-8a9.83,9.83,0,0,0-13.9,0q-2.72,2.88-2.71,8c0,3.45.9,6.14,2.71,8.09a9.73,9.73,0,0,0,13.9,0Z" transform="translate(-734 -285.38)"/><path class="e" d="M3084.86,2302.34v45.93h-15.33v-4.92a16.5,16.5,0,0,1-6.1,4.24,19.92,19.92,0,0,1-7.54,1.44q-8.89,0-14.19-5.25t-5.3-15.76v-25.68h16.1v23q0,5.18,1.95,7.54a6.92,6.92,0,0,0,5.67,2.37,8,8,0,0,0,6.23-2.67q2.42-2.67,2.42-8.17v-22.12Z" transform="translate(-734 -285.38)"/><path class="e" d="M3138.88,2306.67q5.2,5.07,5.2,15.33v26.27H3128v-23.64q0-9.4-7.54-9.41a8.62,8.62,0,0,0-6.65,2.71q-2.51,2.71-2.5,8.14v22.2h-16.1v-45.93h15.33v5a18.24,18.24,0,0,1,6.44-4.27,21.83,21.83,0,0,1,8.14-1.49Q3133.66,2301.58,3138.88,2306.67Z" transform="translate(-734 -285.38)"/><path class="e" d="M3203.65,2285.4v62.87h-15.34v-4.58q-4.48,5.34-13.47,5.34a22.94,22.94,0,0,1-11.44-2.92,21.11,21.11,0,0,1-8.17-8.35,27.54,27.54,0,0,1,0-25,20.94,20.94,0,0,1,8.17-8.26,23.12,23.12,0,0,1,11.44-2.88q8.22,0,12.71,4.75V2285.4Zm-18.56,47.91c1.81-1.95,2.71-4.64,2.71-8.09s-.89-6-2.67-8a9,9,0,0,0-6.9-2.88,9.12,9.12,0,0,0-6.95,2.88q-2.72,2.88-2.71,8c0,3.45.9,6.14,2.71,8.09a9,9,0,0,0,6.95,2.92A8.94,8.94,0,0,0,3185.09,2333.31Z" transform="translate(-734 -285.38)"/><path class="e" d="M2972.26,2395.23H2717.09a5.06,5.06,0,0,0,0,10.12h255.17a5.06,5.06,0,0,0,0-10.12Z" transform="translate(-734 -285.38)"/><path class="l" d="M4306,1782c2.34,77.17-55.34,149-121.59,197.27s-50.66,91.89-50.66,91.89l-2.53.42-24,3.94s-38.58-71.88,14.22-150.74c45.93-68.6,51.32-87.55,62.21-143.14,1.63-8.31,3.38-17.45,5.41-27.69,15.59-78.72,69.36-138.59,146.53-163.61C4335.66,1590.36,4292.79,1619.13,4306,1782Z" transform="translate(-734 -285.38)"/><path class="d" d="M4071,2086.69h0c-2.29,3.42-3.78,5.22-3.78,5.22l-23.49-8.87-1.64-.61s.27-.45.69-1.32a49.63,49.63,0,0,0,4.21-17c1-12.63-1.32-31.28-15.51-54.4a161.82,161.82,0,0,0-9.36-13.56c-3.43-4.46-7.28-9.06-11.63-13.79-55.47-60.33-97.89-142.13-80.43-217.32,45-157.11,8.65-193.75,8.65-193.75,70.73,39.7,111.69,109,111.5,189.22-.12,47.14-1.33,71,5.05,100.49,1,4.48,2.12,9.09,3.47,13.94,4.88,17.5,12.47,38,24.18,66.37a165.52,165.52,0,0,1,12.43,51A151.6,151.6,0,0,1,4071,2086.69Z" transform="translate(-734 -285.38)"/><path class="m" d="M4095.36,1992.37c-11.37,45.49-24.16,93.65-24.33,94.32h0c-2.29,3.42-3.78,5.22-3.78,5.22l-23.49-8.87-.95-1.93a49.63,49.63,0,0,0,4.21-17c1-12.63-1.32-31.28-15.51-54.4a161.82,161.82,0,0,0-9.36-13.56c-1.24-36.57,6.32-70.06,16.78-91.74a282.5,282.5,0,0,0,16.36-43.41c1,4.48,2.12,9.09,3.47,13.94,4.88,17.5,12.47,38,24.18,66.37A165.52,165.52,0,0,1,4095.36,1992.37Z" transform="translate(-734 -285.38)"/><path class="e" d="M4115.22,2072.68a2.27,2.27,0,0,1-2.27-2.27c0-39.33,15.95-81.32,48.75-128.37,6-8.58,12.44-17,18.69-25.15,14.36-18.73,29.21-38.09,39-60.37,7.87-18,7.34-36,6.79-55.14-.3-10.35-.61-21.05.53-31.74,5.39-50.32,20.53-85,49.09-112.4a2.27,2.27,0,1,1,3.14,3.28c-27.72,26.62-42.44,60.43-47.71,109.61-1.11,10.37-.8,20.92-.51,31.12.55,18.77,1.11,38.18-7.17,57.09-10,22.79-25,42.38-39.52,61.32-6.22,8.11-12.64,16.49-18.57,25-32.25,46.26-47.93,87.4-47.93,125.77A2.28,2.28,0,0,1,4115.22,2072.68Z" transform="translate(-734 -285.38)"/><path class="e" d="M4069.56,2109.41a2.09,2.09,0,0,1-.49,0,2.27,2.27,0,0,1-1.73-2.71c10.15-46.1-9.7-94-25.52-126-4.45-9-9.22-18.11-13.83-26.91-15.75-30.06-32-61.15-39.13-94.88-6.6-31.36-5-63.95-3.5-95.47.25-5.21.51-10.59.73-15.86,1.5-36.47.89-74.83-13.68-108.27a2.27,2.27,0,0,1,4.17-1.82c14.93,34.28,15.58,73.26,14.05,110.28-.22,5.29-.48,10.67-.73,15.89-1.51,31.23-3.07,63.53,3.41,94.32,7,33.11,23.1,63.91,38.71,93.7,4.62,8.83,9.4,18,13.87,27,11.57,23.41,19.4,44,23.94,62.91,5.79,24.13,6.43,45.75,2,66.1A2.27,2.27,0,0,1,4069.56,2109.41Z" transform="translate(-734 -285.38)"/><path class="m" d="M4189.23,1858.16a200.73,200.73,0,0,1-32.12,92.32c-20.48,31.51-27.71,58-30.18,74.65-2.83,19.16-.63,33.24,2.11,39.47a33,33,0,0,1,2.22,7l-24,3.94s-38.58-71.88,14.22-150.74c45.93-68.6,51.32-87.55,62.21-143.14q.33,1.85.66,3.6c.56,3,1.08,5.84,1.49,8.61.15,1,.32,2.05.49,3.2C4188.21,1809,4191.63,1831.23,4189.23,1858.16Z" transform="translate(-734 -285.38)"/><path class="h" d="M4069.24,2062.61s-45.21-67.81,4.68-166c22.6-64.69-17.15-142.63,3.89-214.34s92.75-67.81,112.24-147.31l12.47-43.64s35.85,109.89-15.59,191c-37.41,55.34-24.16,93.53-21,114.57s14.8,80.28-25.72,142.63-38.2,113.8-29.62,133.28S4069.24,2062.61,4069.24,2062.61Z" transform="translate(-734 -285.38)"/><path class="e" d="M4093.48,2097.77a2.28,2.28,0,0,1-1.51-.57c-8.06-7.18-10.73-25.87-12.5-38.24-.27-1.94-.53-3.76-.78-5.32-1.74-10.85-.88-21.82,0-32.44.3-3.84.61-7.82.79-11.67.82-18.06,2-33.29,9.55-51,1.91-4.5,3.92-9,5.87-13.44,4.84-10.92,9.84-22.21,13.54-33.62,10.5-32.29,12.45-71.64,5.37-108-9.6-49.25-2.33-95.91,21-134.94,5.89-9.85,12.62-19.08,19.13-28,12.81-17.57,24.92-34.16,30.81-54.8a2.28,2.28,0,0,1,4.38,1.25c-6.13,21.41-18.46,38.33-31.52,56.23-6.44,8.84-13.11,18-18.9,27.66-22.77,38-29.85,83.59-20.46,131.73,7.33,37.59,5.37,76.74-5.51,110.23-3.78,11.62-8.83,23-13.72,34.05-1.94,4.38-3.94,8.91-5.83,13.37-7.22,17-8.4,31.84-9.2,49.45-.18,3.92-.49,7.94-.8,11.82-.82,10.35-1.66,21,0,31.36.25,1.59.52,3.44.8,5.4,1.49,10.49,3.68,25.79,9,33.23a2.23,2.23,0,0,1,2,.63,3.48,3.48,0,0,1,1.22,3,3.09,3.09,0,0,1-1.56,2.31A2.28,2.28,0,0,1,4093.48,2097.77Zm-1.6-2.28Z" transform="translate(-734 -285.38)"/><path class="n" d="M4146.93,2045.46H4033.64a22.69,22.69,0,0,0-22.14,27.63l15.81,70.76a22.67,22.67,0,0,0,22.14,17.74h81.67a22.69,22.69,0,0,0,22.14-17.74l15.81-70.76A22.69,22.69,0,0,0,4146.93,2045.46Z" transform="translate(-734 -285.38)"/><path class="o" d="M4153,2144.9a22.68,22.68,0,0,1-21.88,16.69h-81.67a22.69,22.69,0,0,1-22.15-17.74l-15.8-70.76a22.69,22.69,0,0,1,22.14-27.63h.13a108.44,108.44,0,0,0,108.1,100A110.58,110.58,0,0,0,4153,2144.9Z" transform="translate(-734 -285.38)"/></g></svg>