<svg width="1000" height="1000" viewBox="0 0 1000 1000" fill="none" xmlns="http://www.w3.org/2000/svg">
<path d="M580 680V534L607 507L743 643L643 743L580 680Z" fill="#00B478"/>
<path d="M257 357L357 257L420 320V466L393 493L257 357Z" fill="#00B478"/>
<path d="M7 393L107 493L350 250H150L7 393ZM650 750H850L993 607L893 507L650 750Z" fill="#00B478"/>
<path d="M430 684L570 544V860H430V684Z" fill="#00B478"/>
<path d="M430 140H570V316L430 456V140Z" fill="#00B478"/>
<path d="M0 400V600L143 743L243 643L0 400ZM757 357L857 257L1000 400V600L757 357Z" fill="#00B478"/>
<path d="M150 750H350L850 250H650L150 750Z" fill="#00B478"/>
</svg>
