<?xml version="1.0" standalone="no"?>
<!DOCTYPE svg PUBLIC "-//W3C//DTD SVG 20010904//EN"
 "http://www.w3.org/TR/2001/REC-SVG-20010904/DTD/svg10.dtd">
<svg version="1.0" xmlns="http://www.w3.org/2000/svg"
 width="708.000000pt" height="534.000000pt" viewBox="0 0 708.000000 534.000000"
 preserveAspectRatio="xMidYMid meet">

<g transform="translate(0.000000,534.000000) scale(0.100000,-0.100000)"
fill="#bc2239" stroke="none">
<path d="M1831 5079 c-362 -40 -707 -182 -926 -380 -315 -285 -484 -618 -549
-1086 l-6 -43 560 0 560 0 0 38 c1 158 92 337 213 417 89 59 157 78 282 79
133 1 213 -22 303 -88 179 -132 234 -409 125 -628 -89 -177 -258 -268 -500
-268 l-103 0 0 -398 0 -399 113 -6 c194 -11 303 -52 403 -151 69 -70 108 -142
129 -241 59 -277 -85 -526 -336 -584 -74 -17 -220 -13 -288 8 -187 58 -318
230 -338 443 l-6 68 -559 0 -558 0 6 -43 c41 -288 129 -542 256 -737 231 -358
537 -573 963 -679 193 -48 457 -69 658 -52 710 60 1190 447 1308 1054 97 502
-80 1057 -408 1275 -48 32 -53 38 -38 47 47 27 154 118 187 157 128 155 213
347 260 583 29 143 31 401 5 545 -104 567 -515 947 -1142 1056 -108 19 -453
27 -574 13z"/>
<path d="M4000 2720 l0 -2290 595 0 595 0 0 900 0 900 655 0 655 0 0 500 0
500 -655 0 -655 0 0 385 0 385 720 0 720 0 0 505 0 505 -1315 0 -1315 0 0
-2290z"/>
</g>
</svg>
