<?xml version="1.0" standalone="no"?>
<!DOCTYPE svg PUBLIC "-//W3C//DTD SVG 20010904//EN"
 "http://www.w3.org/TR/2001/REC-SVG-20010904/DTD/svg10.dtd">
<svg version="1.0" xmlns="http://www.w3.org/2000/svg"
 width="1000.000000pt" height="1000.000000pt" viewBox="0 0 1000.000000 1000.000000"
 preserveAspectRatio="xMidYMid meet">
<metadata>
Created by potrace 1.11, written by Peter Selinger 2001-2013
</metadata>
<g transform="translate(0.000000,1000.000000) scale(0.100000,-0.100000)"
fill="#000000" stroke="none">
<path d="M4300 7018 l0 -1583 700 700 700 700 0 882 0 883 -700 0 -700 0 0
-1582z"/>
<path d="M780 6785 l-715 -715 503 -502 502 -503 1217 1218 1218 1217 -1005 0
-1005 0 -715 -715z"/>
<path d="M3995 5000 l-2500 -2500 1005 0 1005 0 2500 2500 2500 2500 -1005 0
-1005 0 -2500 -2500z"/>
<path d="M3065 6930 l-500 -500 682 -682 683 -683 135 135 135 135 0 735 0
735 -313 313 c-171 171 -314 312 -317 312 -3 0 -230 -225 -505 -500z"/>
<path d="M8065 6930 l-500 -500 1218 -1218 1217 -1217 0 1005 0 1005 -713 713
c-391 391 -714 712 -717 712 -3 0 -230 -225 -505 -500z"/>
<path d="M0 5000 l0 -1005 715 -715 715 -715 502 503 503 502 -1218 1217
-1217 1218 0 -1005z"/>
<path d="M5932 4797 l-132 -132 0 -735 0 -735 315 -315 315 -315 503 503 502
502 -680 680 c-374 374 -682 680 -685 680 -3 0 -65 -60 -138 -133z"/>
<path d="M7710 3715 l-1215 -1215 1005 0 1005 0 715 715 715 715 -500 500
c-275 275 -502 500 -505 500 -3 0 -552 -547 -1220 -1215z"/>
<path d="M4997 3862 l-697 -697 0 -883 0 -882 700 0 700 0 0 1580 c0 869 -1
1580 -3 1580 -1 0 -316 -314 -700 -698z"/>
</g>
</svg>
