<svg width="48" height="49" viewBox="0 0 48 49" fill="none" xmlns="http://www.w3.org/2000/svg">
<path d="M28 40.1264C28 41.1872 27.5786 42.2047 26.8284 42.9548C26.0783 43.705 25.0609 44.1264 24 44.1264H22C20.9391 44.1264 19.9217 43.705 19.1716 42.9548C18.4214 42.2047 18 41.1872 18 40.1264H20C20 40.6568 20.2107 41.1655 20.5858 41.5406C20.9609 41.9157 21.4696 42.1264 22 42.1264H24C24.5304 42.1264 25.0391 41.9157 25.4142 41.5406C25.7893 41.1655 26 40.6568 26 40.1264H28ZM30 34.1264C30 35.1872 29.5786 36.2047 28.8284 36.9548C28.0783 37.705 27.0609 38.1264 26 38.1264H20C18.9391 38.1264 17.9217 37.705 17.1716 36.9548C16.4214 36.2047 16 35.1872 16 34.1264V30.0824C13.6307 28.5684 11.8162 26.3271 10.8285 23.6946C9.8408 21.0621 9.73321 18.1804 10.5219 15.4816C11.3105 12.7827 12.9529 10.4124 15.2027 8.72594C17.4524 7.03951 20.1883 6.12793 23 6.12793C25.8117 6.12793 28.5476 7.03951 30.7973 8.72594C33.0471 10.4124 34.6895 12.7827 35.4781 15.4816C36.2668 18.1804 36.1592 21.0621 35.1715 23.6946C34.1838 26.3271 32.3693 28.5684 30 30.0824V34.1264ZM18 34.1264C18 34.6568 18.2107 35.1655 18.5858 35.5406C18.9609 35.9157 19.4696 36.1264 20 36.1264H26C26.5304 36.1264 27.0391 35.9157 27.4142 35.5406C27.7893 35.1655 28 34.6568 28 34.1264V28.9264C30.2003 27.8036 31.9586 25.9728 32.9917 23.729C34.0249 21.4852 34.2727 18.959 33.6953 16.5572C33.1179 14.1554 31.7488 12.0179 29.8087 10.4889C27.8685 8.95988 25.4702 8.12842 23 8.12842C20.5298 8.12842 18.1315 8.95988 16.1913 10.4889C14.2512 12.0179 12.8821 14.1554 12.3047 16.5572C11.7273 18.959 11.9751 21.4852 13.0083 23.729C14.0414 25.9728 15.7997 27.8036 18 28.9264V34.1264Z" fill="url(#paint0_radial)"/>
<defs>
<radialGradient id="paint0_radial" cx="0" cy="0" r="1" gradientUnits="userSpaceOnUse" gradientTransform="translate(10 44.1264) rotate(-55.6186) scale(46.0422 112.263)">
<stop stop-color="#00B478"/>
<stop offset="1" stop-color="#FFC800"/>
</radialGradient>
</defs>
</svg>
