<svg width="167" height="64" viewBox="0 0 167 64" fill="none" xmlns="http://www.w3.org/2000/svg">
<path d="M37.12 43.52V34.176L38.848 32.448L47.552 41.152L41.152 47.552L37.12 43.52Z" fill="#00B478"/>
<path d="M16.448 22.848L22.848 16.448L26.88 20.48V29.824L25.152 31.552L16.448 22.848Z" fill="#00B478"/>
<path d="M0.447998 25.152L6.848 31.552L22.4 16H9.6L0.447998 25.152ZM41.6 48H54.4L63.552 38.848L57.152 32.448L41.6 48Z" fill="#00B478"/>
<path d="M27.52 43.776L36.48 34.816V55.04H27.52V43.776Z" fill="#00B478"/>
<path d="M27.52 8.96H36.48V20.224L27.52 29.184V8.96Z" fill="#00B478"/>
<path d="M0 25.6V38.4L9.152 47.552L15.552 41.152L0 25.6ZM48.448 22.848L54.848 16.448L64 25.6V38.4L48.448 22.848Z" fill="#00B478"/>
<path d="M9.59998 48H22.4L54.4 16H41.6L9.59998 48Z" fill="#00B478"/>
<path d="M81.7818 37.504C81.2564 37.504 80.8263 37.3487 80.4916 37.0381C80.1812 36.7035 80.0257 36.2735 80.0257 35.7478V11.2691C80.0257 10.7435 80.1812 10.3253 80.4916 10.0147C80.8263 9.68018 81.2564 9.51295 81.7818 9.51295C82.3073 9.51295 82.7258 9.68018 83.0362 10.0147C83.3709 10.3253 83.538 10.7435 83.538 11.2691V25.856L92.2471 18.0787C92.6055 17.7442 92.9997 17.5889 93.4298 17.6128C93.8836 17.6367 94.2663 17.8278 94.5767 18.1862C94.9114 18.5446 95.0663 18.9389 95.0426 19.3689C95.0189 19.799 94.8276 20.1813 94.4692 20.5158L87.8746 26.3936L94.8276 34.9235C95.138 35.3058 95.2698 35.724 95.2218 36.1779C95.1981 36.608 94.9831 36.9903 94.5767 37.3248C94.1946 37.6354 93.7645 37.7668 93.2865 37.719C92.8327 37.6952 92.45 37.492 92.1396 37.1098L85.33 28.6873L83.538 30.2643V35.7478C83.538 36.2735 83.3709 36.7035 83.0362 37.0381C82.7258 37.3487 82.3073 37.504 81.7818 37.504ZM108.358 37.6474C106.375 37.6474 104.607 37.2292 103.054 36.393C101.525 35.5328 100.318 34.362 99.4343 32.8806C98.5741 31.3754 98.1441 29.655 98.1441 27.7197C98.1441 25.7604 98.5498 24.0401 99.3626 22.5587C100.198 21.0534 101.345 19.8827 102.803 19.0464C104.261 18.1862 105.933 17.7561 107.821 17.7561C109.685 17.7561 111.285 18.1743 112.623 19.0105C113.961 19.8229 114.977 20.9579 115.67 22.4153C116.387 23.8489 116.745 25.5096 116.745 27.3971C116.745 27.8511 116.589 28.2334 116.279 28.544C115.968 28.8307 115.574 28.9741 115.096 28.9741H101.477C101.74 30.6227 102.492 31.9727 103.735 33.024C105.001 34.0514 106.542 34.5651 108.358 34.5651C109.099 34.5651 109.852 34.4337 110.616 34.1709C111.405 33.8841 112.038 33.5616 112.516 33.2032C112.874 32.9403 113.256 32.809 113.663 32.809C114.093 32.7851 114.463 32.9045 114.774 33.1673C115.18 33.5257 115.395 33.92 115.419 34.3501C115.443 34.7801 115.251 35.1505 114.845 35.4611C114.033 36.1062 113.018 36.6319 111.799 37.0381C110.604 37.4443 109.457 37.6474 108.358 37.6474ZM107.821 20.8384C106.053 20.8384 104.631 21.3282 103.556 22.3078C102.481 23.2875 101.8 24.5538 101.513 26.1069H113.448C113.233 24.5777 112.647 23.3233 111.692 22.3437C110.735 21.3401 109.445 20.8384 107.821 20.8384ZM126.568 37.504C125.517 37.504 124.585 37.2173 123.773 36.6438C122.961 36.0704 122.327 35.2939 121.873 34.3142C121.42 33.3107 121.192 32.1638 121.192 30.8736V11.3049C121.192 10.7793 121.359 10.3492 121.694 10.0147C122.029 9.68018 122.459 9.51295 122.984 9.51295C123.51 9.51295 123.94 9.68018 124.275 10.0147C124.609 10.3492 124.776 10.7793 124.776 11.3049V30.8736C124.776 31.7576 124.943 32.4864 125.278 33.0598C125.613 33.6333 126.043 33.92 126.568 33.92H127.464C127.942 33.92 128.325 34.0872 128.611 34.4218C128.922 34.7563 129.077 35.1864 129.077 35.712C129.077 36.2376 128.85 36.6677 128.396 37.0022C127.942 37.3368 127.357 37.504 126.64 37.504H126.568ZM140.243 37.6474C138.498 37.6474 136.933 37.2173 135.548 36.3571C134.161 35.4731 133.062 34.2904 132.25 32.809C131.462 31.3037 131.068 29.6072 131.068 27.7197C131.068 25.8321 131.498 24.1357 132.358 22.6304C133.242 21.1251 134.424 19.9424 135.906 19.0822C137.411 18.1982 139.096 17.7561 140.959 17.7561C142.823 17.7561 144.495 18.1982 145.977 19.0822C147.458 19.9424 148.629 21.1251 149.489 22.6304C150.373 24.1357 150.815 25.8321 150.815 27.7197V35.712C150.815 36.2376 150.636 36.6797 150.278 37.0381C149.943 37.3726 149.513 37.5398 148.988 37.5398C148.461 37.5398 148.02 37.3726 147.661 37.0381C147.327 36.6797 147.16 36.2376 147.16 35.712V34.3859C146.323 35.3894 145.308 36.1899 144.113 36.7872C142.942 37.3606 141.652 37.6474 140.243 37.6474ZM140.959 34.4218C142.178 34.4218 143.265 34.135 144.221 33.5616C145.176 32.9643 145.929 32.1638 146.479 31.1603C147.028 30.1329 147.303 28.986 147.303 27.7197C147.303 26.4294 147.028 25.2825 146.479 24.279C145.929 23.2516 145.176 22.4512 144.221 21.8777C143.265 21.2804 142.178 20.9817 140.959 20.9817C139.765 20.9817 138.677 21.2804 137.698 21.8777C136.742 22.4512 135.978 23.2516 135.404 24.279C134.854 25.2825 134.58 26.4294 134.58 27.7197C134.58 28.986 134.854 30.1329 135.404 31.1603C135.978 32.1638 136.742 32.9643 137.698 33.5616C138.677 34.135 139.765 34.4218 140.959 34.4218ZM161.417 37.504C160.365 37.504 159.434 37.2173 158.621 36.6438C157.809 36.0704 157.176 35.2939 156.722 34.3142C156.268 33.3107 156.041 32.1638 156.041 30.8736V11.3049C156.041 10.7793 156.208 10.3492 156.543 10.0147C156.877 9.68018 157.307 9.51295 157.833 9.51295C158.358 9.51295 158.789 9.68018 159.123 10.0147C159.457 10.3492 159.625 10.7793 159.625 11.3049V30.8736C159.625 31.7576 159.792 32.4864 160.127 33.0598C160.461 33.6333 160.891 33.92 161.417 33.92H162.313C162.79 33.92 163.173 34.0872 163.46 34.4218C163.77 34.7563 163.926 35.1864 163.926 35.712C163.926 36.2376 163.699 36.6677 163.245 37.0022C162.79 37.3368 162.205 37.504 161.489 37.504H161.417ZM84.7297 56.704C84.1319 56.704 83.5943 56.5547 83.1169 56.256C82.6388 55.9454 82.2625 55.5272 81.9879 55.0016C81.7127 54.476 81.5757 53.8846 81.5757 53.2275V48.8013H80.7514C80.5005 48.8013 80.297 48.7296 80.1421 48.5862C79.9866 48.4429 79.9092 48.2637 79.9092 48.0486C79.9092 47.8097 79.9866 47.6186 80.1421 47.4752C80.297 47.3318 80.5005 47.2602 80.7514 47.2602H81.5757V44.6797C81.5757 44.4168 81.6589 44.2018 81.8266 44.0345C81.9937 43.8673 82.2087 43.7837 82.4717 43.7837C82.7341 43.7837 82.9492 43.8673 83.1169 44.0345C83.2839 44.2018 83.3677 44.4168 83.3677 44.6797V47.2602H84.8909C85.1418 47.2602 85.3447 47.3318 85.5002 47.4752C85.6551 47.6186 85.7332 47.8097 85.7332 48.0486C85.7332 48.2637 85.6551 48.4429 85.5002 48.5862C85.3447 48.7296 85.1418 48.8013 84.8909 48.8013H83.3677V53.2275C83.3677 53.7054 83.4989 54.1056 83.762 54.4282C84.0244 54.7507 84.3469 54.912 84.7297 54.912H85.3389C85.554 54.912 85.7332 54.9956 85.8765 55.1629C86.0314 55.3301 86.1095 55.5451 86.1095 55.808C86.1095 56.0708 86.0077 56.2859 85.8049 56.4531C85.6135 56.6203 85.3626 56.704 85.0522 56.704H84.7297ZM93.2122 56.7757C92.2209 56.7757 91.3364 56.5666 90.5601 56.1485C89.7953 55.7184 89.1924 55.133 88.7501 54.3923C88.3201 53.6397 88.105 52.7795 88.105 51.8118C88.105 50.8322 88.3079 49.972 88.7143 49.2314C89.1322 48.4787 89.7057 47.8933 90.4346 47.4752C91.1636 47.0451 91.9994 46.8301 92.9434 46.8301C93.8753 46.8301 94.6759 47.0392 95.3447 47.4573C96.0135 47.8635 96.5217 48.4309 96.8679 49.1597C97.2263 49.8765 97.4055 50.7067 97.4055 51.6506C97.4055 51.8776 97.3281 52.0687 97.1725 52.224C97.017 52.3674 96.8199 52.439 96.5812 52.439H89.7716C89.9028 53.2634 90.2791 53.9384 90.9005 54.464C91.5335 54.9777 92.3041 55.2346 93.2122 55.2346C93.5828 55.2346 93.9591 55.1688 94.3412 55.0374C94.7354 54.8941 95.0522 54.7328 95.2909 54.5536C95.4701 54.4222 95.6615 54.3565 95.8644 54.3565C96.0794 54.3445 96.2644 54.4043 96.4199 54.5357C96.6228 54.7149 96.7303 54.912 96.7425 55.127C96.7546 55.3421 96.6586 55.5272 96.4557 55.6826C96.0493 56.0051 95.5418 56.268 94.9325 56.471C94.3354 56.6741 93.762 56.7757 93.2122 56.7757ZM92.9434 48.3712C92.0596 48.3712 91.3485 48.6161 90.8109 49.1059C90.2733 49.5957 89.9329 50.2289 89.7895 51.0054H95.7569C95.6493 50.2408 95.3569 49.6136 94.8788 49.1238C94.4007 48.6221 93.7556 48.3712 92.9434 48.3712ZM104.082 56.7757C103.126 56.7757 102.272 56.5606 101.519 56.1306C100.778 55.6885 100.193 55.0971 99.7633 54.3565C99.3447 53.6038 99.1361 52.7556 99.1361 51.8118C99.1361 50.8442 99.3447 49.984 99.7633 49.2314C100.181 48.4787 100.755 47.8933 101.484 47.4752C102.212 47.0451 103.048 46.8301 103.992 46.8301C105.402 46.8301 106.573 47.3677 107.505 48.4429C107.672 48.634 107.731 48.8312 107.684 49.0342C107.636 49.2373 107.505 49.4165 107.29 49.5718C107.122 49.6913 106.937 49.7331 106.734 49.6973C106.531 49.6495 106.346 49.5419 106.179 49.3747C105.593 48.7535 104.864 48.4429 103.992 48.4429C103.072 48.4429 102.326 48.7535 101.752 49.3747C101.179 49.984 100.892 50.7963 100.892 51.8118C100.892 52.457 101.023 53.0304 101.286 53.5322C101.561 54.0339 101.937 54.4341 102.415 54.7328C102.893 55.0195 103.448 55.1629 104.082 55.1629C104.894 55.1629 105.551 54.9538 106.053 54.5357C106.244 54.3803 106.441 54.2968 106.645 54.2848C106.847 54.2609 107.027 54.3147 107.182 54.4461C107.385 54.6133 107.498 54.8045 107.523 55.0195C107.546 55.2226 107.475 55.4078 107.308 55.575C106.447 56.3755 105.372 56.7757 104.082 56.7757ZM111.565 56.7219C111.302 56.7219 111.081 56.6383 110.902 56.471C110.735 56.2918 110.651 56.0708 110.651 55.808V47.8157C110.651 47.5409 110.735 47.3199 110.902 47.1526C111.081 46.9854 111.302 46.9018 111.565 46.9018C111.839 46.9018 112.061 46.9854 112.228 47.1526C112.395 47.3199 112.479 47.5409 112.479 47.8157V48.0128C112.849 47.6424 113.297 47.3498 113.823 47.1347C114.348 46.9197 114.916 46.8122 115.525 46.8122C116.349 46.8122 117.084 46.9914 117.729 47.3498C118.387 47.6962 118.9 48.2099 119.27 48.8909C119.653 49.5718 119.844 50.4081 119.844 51.3997V55.808C119.844 56.0708 119.754 56.2918 119.575 56.471C119.408 56.6383 119.193 56.7219 118.93 56.7219C118.667 56.7219 118.446 56.6383 118.267 56.471C118.1 56.2918 118.016 56.0708 118.016 55.808V51.3997C118.016 50.3842 117.741 49.6435 117.192 49.1776C116.654 48.6997 115.979 48.4608 115.167 48.4608C114.665 48.4608 114.211 48.5624 113.805 48.7654C113.398 48.9685 113.076 49.2433 112.837 49.5898C112.598 49.9243 112.479 50.3125 112.479 50.7546V55.808C112.479 56.0708 112.395 56.2918 112.228 56.471C112.061 56.6383 111.839 56.7219 111.565 56.7219ZM111.565 53.1379C111.302 53.1379 111.081 53.0543 110.902 52.887C110.735 52.7078 110.651 52.4868 110.651 52.224V43.6224C110.651 43.3476 110.735 43.1266 110.902 42.9594C111.081 42.7921 111.302 42.7085 111.565 42.7085C111.839 42.7085 112.061 42.7921 112.228 42.9594C112.395 43.1266 112.479 43.3476 112.479 43.6224V52.224C112.479 52.4868 112.395 52.7078 112.228 52.887C112.061 53.0543 111.839 53.1379 111.565 53.1379Z" fill="#00B478"/>
</svg>
