<svg version="1" xmlns="http://www.w3.org/2000/svg" width="1333.333" height="1333.333" viewBox="0 0 1000.000000 1000.000000"><path d="M430 297.5c0 86.6.2 157.5.5 157.5s31.8-31.3 70-69.5L570 316V140H430v157.5zM78.2 321.6L7 393l24.7 24.8c13.7 13.6 36.2 36.1 50 50L107 493l121-121c66.5-66.5 121-121.2 121-121.5 0-.3-44.9-.5-99.7-.4l-99.8.1-71.3 71.4zM400.3 499.6C263.2 636.8 151 749.2 151 749.5c0 .3 44.8.5 99.5.5H350l250-250 250-250-100.2.1-100.3.1-249.2 249.4zM307 307l-50 50 68 68 68 68 13.5-13.5L420 466V320l-31.5-31.5L357 257l-50 50zM806.8 307.1L757 357l121.3 121.3 121.2 121.2.3-99.7.2-99.8-71.5-71.5c-39.3-39.3-71.6-71.5-71.8-71.4-.1 0-22.6 22.5-49.9 50zM0 500v100l71.5 71.5L143 743l50-50 50-50-121.5-121.5L0 400v100zM593.5 520.5L580 534v146l31.5 31.5L643 743l50-50 50-50-68-68-68-68-13.5 13.5zM771.8 628.2C705.3 694.6 651 749.2 651 749.5c0 .3 44.8.5 99.5.5H850l71.5-71.5L993 607l-48.8-48.7c-26.8-26.9-49.4-49.3-50.2-49.9-1.2-.9-24.3 21.8-122.2 119.8zM499.8 614.1L430 684v176h140V702c0-86.9-.1-158-.2-157.9-.2 0-31.7 31.5-70 70z"/></svg>